<?xml version="1.0" encoding="UTF-8"?>
<svg id="base" xmlns="http://www.w3.org/2000/svg" version="1.1" viewBox="0 0 256 234.6">
  <!-- Generator: Adobe Illustrator 30.3.0, SVG Export Plug-In . SVG Version: 2.1.3 Build 182)  -->
  <defs>
    <style>
      .st0 {
        fill: #127596;
      }

      .st1 {
        fill: #7ac74f;
      }
    </style>
  </defs>
  <path id="nodeblast_logo_left" class="st1" d="M0,117.3s.7,28.6,19,46c18.3,17.4,45.1,18.1,45.1,18.1,35.3,0,64-28.7,64-64s28.6-64,64-64h.6c15.1,0,24.6-16.1,17.1-29.2C201.1,9.3,185.2,0,167.9,0h-79.7C70.9,0,54.9,9.3,46.3,24.3c0,0-22.5,39-27.8,48.2C13.2,81.6,0,99.9,0,117.4H0ZM39.9,115.8c.8-12,10.5-21.7,22.4-22.4,14.5-.8,26.4,11,25.5,25.5-.8,12-10.5,21.7-22.4,22.4-14.5.8-26.4-11-25.5-25.5Z"/>
  <path id="nodeblast_logo_right" class="st0" d="M46.2,210.4c8.7,15,24.6,24.2,41.9,24.2h79.7c17.3,0,33.3-9.2,41.9-24.2,0,0,22.5-39,27.8-48.2,5.3-9.2,18.5-27.5,18.5-45,0,0,.2-28.6-19.8-46.7-20-18.1-44.3-17.4-44.3-17.4-35.3,0-64,28.7-64,64s-28.6,64-64,64h-.6c-15.1,0-24.6,16.1-17.1,29.2h0ZM168.2,115.7c.8-12,10.5-21.7,22.4-22.4,14.5-.8,26.4,11,25.5,25.5-.8,12-10.5,21.7-22.4,22.4-14.5.8-26.4-11-25.5-25.5Z"/>
</svg>