<?xml version="1.0" encoding="UTF-8"?>
<svg id="base" xmlns="http://www.w3.org/2000/svg" version="1.1" viewBox="0 0 256 234.6">
  <!-- Generator: Adobe Illustrator 30.3.0, SVG Export Plug-In . SVG Version: 2.1.3 Build 182)  -->
  <defs>
    <style>
      .st0 {
        opacity: 0;
      }
    </style>
  </defs>
  <g id="nodeblast_logo_left">
    <path d="M7.9,117s.7,26.9,17.9,43.3c17.2,16.4,42.5,17,42.5,17,33.3,0,60.3-27,60.3-60.3s26.9-60.3,60.3-60.3h.6c14.2,0,23.2-15.2,16.1-27.5-8.2-14.1-23.2-22.8-39.5-22.8h-75.1c-16.3,0-31.4,8.7-39.5,22.8,0,0-21.2,36.6-26.2,45.3-5,8.7-17.4,25.8-17.4,42.4ZM45.6,115.6c.8-11.3,9.9-20.3,21.1-21.1,13.7-.8,24.9,10.4,24,24-.8,11.3-9.9,20.3-21.1,21.1-13.7.8-24.9-10.4-24-24Z"/>
  </g>
  <g id="nodeblast_logo_right">
    <path d="M166,234h-75.1c-18.5,0-35.8-10-45.1-26h0c-4.5-7.8-4.4-17.1,0-24.8,4.5-7.8,12.6-12.5,21.7-12.5h.6c29.7,0,53.8-24.1,53.8-53.8s29.9-66.7,66.7-66.8c2.2,0,26.2-.1,46.2,18.1,20.7,18.9,20.8,47.6,20.8,48.8,0,15.8-9.4,31-15.6,41.1-1.1,1.7-2,3.2-2.7,4.5-5,8.7-26.2,45.3-26.2,45.3-9.2,16.1-26.5,26-45.1,26ZM57.1,201.5c7,12.1,20,19.5,33.8,19.5h75.1c14,0,26.9-7.5,33.8-19.5,0,0,21.2-36.7,26.2-45.3.8-1.4,1.8-3.1,2.9-4.8,5.4-8.8,13.7-22.2,13.7-34.4,0-.3-.1-24.3-16.5-39.2-16.5-15-37-14.7-37.2-14.7h-.2c-29.7,0-53.8,24.1-53.8,53.8s-30,66.8-66.8,66.8h-.6c-4.4,0-8.3,2.2-10.5,6-2.2,3.7-2.2,8,0,11.8Z"/>
  </g>
  <g id="nodeblast_circle_left" class="st0">
    <path d="M69.6,139.6c-13.7.8-24.9-10.4-24-24,.8-11.3,9.9-20.3,21.1-21.1,13.7-.8,24.9,10.4,24,24-.8,11.3-9.9,20.3-21.1,21.1Z"/>
  </g>
  <path d="M166.3,115.5c.8-11.3,9.9-20.3,21.1-21.1,13.7-.8,24.9,10.4,24,24-.8,11.3-9.9,20.3-21.1,21.1-13.7.8-24.9-10.4-24-24Z"/>
</svg>