<?xml version="1.0" encoding="UTF-8"?>
<svg id="base" xmlns="http://www.w3.org/2000/svg" version="1.1" viewBox="0 0 256 234.6">
  <!-- Generator: Adobe Illustrator 30.3.0, SVG Export Plug-In . SVG Version: 2.1.3 Build 182)  -->
  <defs>
    <style>
      .st0 {
        fill: #127596;
      }

      .st1 {
        fill: #7ac74f;
      }
    </style>
  </defs>
  <path id="nodeblast_logo_right" class="st1" d="M237.5,72.3c-5.3-9.2-27.8-48.1-27.8-48.1C201.1,9.2,185.1,0,167.8,0h-79.7C70.8,0,54.9,9.2,46.2,24.2c-7.5,13.1,2,29.3,17.1,29.2h.6c35.4,0,64,28.7,64,64s28.7,64,64,64c0,0,25.2.7,45.1-18.1s19-46,19-46c0-17.6-13.2-35.8-18.5-45ZM190.5,141.3c-11.9-.8-21.6-10.4-22.4-22.4-.9-14.5,11-26.4,25.5-25.5,11.9.8,21.6,10.4,22.4,22.4.9,14.5-11,26.4-25.5,25.5Z"/>
  <path id="nodeblast_logo_eft" class="st0" d="M192.7,181.2h-.6c-35.4,0-64-28.7-64-64s-28.7-64-64-64c0,0-24.4-.9-44.3,17.4S0,117.3,0,117.3c0,17.6,13.2,35.8,18.5,45,5.3,9.2,27.8,48.1,27.8,48.1,8.6,15,24.6,24.2,41.9,24.2h79.7c17.3,0,33.2-9.2,41.9-24.2,7.5-13.1-2-29.3-17.1-29.2ZM62.4,141.2c-11.9-.8-21.6-10.4-22.4-22.4-.9-14.5,11-26.4,25.5-25.5,11.9.8,21.6,10.4,22.4,22.4.9,14.5-11,26.4-25.5,25.5Z"/>
  <path id="nodeblast_circle_right" class="st0" d="M168.1,118.9c-.9-14.5,11-26.4,25.5-25.5,11.9.8,21.6,10.4,22.4,22.4.9,14.5-11,26.4-25.5,25.5-11.9-.8-21.6-10.4-22.4-22.4Z"/>
  <path id="nodeblast_circle_left" class="st1" d="M87.9,115.8c.9,14.5-11,26.4-25.5,25.5-11.9-.8-21.6-10.4-22.4-22.4-.9-14.5,11-26.4,25.5-25.5,11.9.8,21.6,10.4,22.4,22.4Z"/>
</svg>