<?xml version="1.0" encoding="UTF-8"?>
<svg id="base" xmlns="http://www.w3.org/2000/svg" version="1.1" viewBox="0 0 234.7 256">
  <!-- Generator: Adobe Illustrator 30.3.0, SVG Export Plug-In . SVG Version: 2.1.3 Build 182)  -->
  <defs>
    <style>
      .st0 {
        fill: #127596;
      }

      .st1 {
        fill: #7ac74f;
      }
    </style>
  </defs>
  <path id="nodeblast_logo_bottom" class="st1" d="M162.4,18.5C150.9,7.1,134.9,0,117.4,0s-32.9,11.5-45,18.5-48.1,27.8-48.1,27.8C9.3,54.9,0,70.9,0,88.2v79.7c0,17.3,9.2,33.2,24.2,41.9h0c13.1,7.5,29.3-2,29.2-17.1v-.6c0-35.4,28.7-64,64-64s64-28.7,64-64-7.3-33.9-19-45.5h0ZM119,87.9c-14.5.9-26.4-11-25.5-25.5.8-11.9,10.4-21.6,22.4-22.4,14.5-.9,26.4,11,25.5,25.5-.8,11.9-10.4,21.6-22.4,22.4Z"/>
  <path id="nodeblast_logo_bottom1" data-name="nodeblast_logo_bottom" class="st0" d="M72.3,237.5c11.5,11.4,27.4,18.5,45,18.5s32.9-11.5,45-18.5,48.1-27.8,48.1-27.8c15-8.6,24.2-24.6,24.2-41.9v-79.7c0-17.3-9.2-33.2-24.2-41.9h0c-13.1-7.5-29.3,2-29.2,17.1v.6c0,35.4-28.7,64-64,64s-64,28.7-64,64,7.3,33.9,19,45.5h0ZM115.7,168.1c14.5-.9,26.4,11,25.5,25.5-.8,11.9-10.4,21.6-22.4,22.4-14.5.9-26.4-11-25.5-25.5.8-11.9,10.4-21.6,22.4-22.4Z"/>
  <path id="nodeblast_circle_top" class="st0" d="M119,87.9c-14.5.9-26.4-11-25.5-25.5.8-11.9,10.4-21.6,22.4-22.4,14.5-.9,26.4,11,25.5,25.5-.8,11.9-10.4,21.6-22.4,22.4Z"/>
  <path id="nodeblast_circle_bottom" class="st1" d="M115.9,168.1c14.5-.9,26.4,11,25.5,25.5-.8,11.9-10.4,21.6-22.4,22.4-14.5.9-26.4-11-25.5-25.5.8-11.9,10.4-21.6,22.4-22.4Z"/>
</svg>