<?xml version="1.0" encoding="UTF-8"?>
<svg id="base" xmlns="http://www.w3.org/2000/svg" version="1.1" viewBox="0 0 256 256">
  <!-- Generator: Adobe Illustrator 30.3.0, SVG Export Plug-In . SVG Version: 2.1.3 Build 182)  -->
  <defs>
    <style>
      .st0 {
        opacity: 0;
      }

      .st1 {
        fill: #94a3b8;
      }

      .st2 {
        fill: #0f1012;
      }
    </style>
  </defs>
  <rect id="logo_background" class="st2" width="256" height="256" rx="85" ry="85"/>
  <g>
    <g id="nodeblast_logo_left">
      <path class="st1" d="M38.1,127.8s.5,20.1,13.4,32.4c12.9,12.3,31.8,12.7,31.8,12.7,24.9,0,45.1-20.2,45.1-45.1s20.1-45.1,45.1-45.1h.4c10.6,0,17.4-11.4,12-20.6-6.1-10.5-17.4-17.1-29.6-17.1h-56.2c-12.2,0-23.5,6.5-29.6,17.1,0,0-15.9,27.4-19.6,33.9s-13,19.3-13,31.7h0ZM66.4,126.7c.6-8.5,7.4-15.2,15.8-15.8,10.2-.6,18.6,7.8,18,18-.6,8.5-7.4,15.2-15.8,15.8-10.2.6-18.6-7.8-18-18Z"/>
    </g>
    <g id="nodeblast_logo_right">
      <path class="st1" d="M156.4,215.3h-56.2c-13.8,0-26.8-7.5-33.7-19.5h0c-3.4-5.8-3.3-12.8,0-18.6,3.4-5.8,9.4-9.4,16.2-9.4h.4c22.2,0,40.3-18,40.3-40.3s22.4-49.9,49.9-50c1.6,0,19.6,0,34.6,13.5,15.5,14.1,15.6,35.6,15.6,36.5,0,11.8-7,23.2-11.7,30.7-.8,1.3-1.5,2.4-2,3.4-3.7,6.5-19.6,33.9-19.6,33.9-6.9,12-19.8,19.5-33.7,19.5h0ZM75,191c5.2,9.1,15,14.6,25.3,14.6h56.2c10.5,0,20.1-5.6,25.3-14.6,0,0,15.9-27.5,19.6-33.9.6-1,1.3-2.3,2.2-3.6,4-6.6,10.2-16.6,10.2-25.7s0-18.2-12.3-29.3c-12.3-11.2-27.7-11-27.8-11h-.1c-22.2,0-40.3,18-40.3,40.3s-22.4,50-50,50h-.4c-3.3,0-6.2,1.6-7.9,4.5-1.6,2.8-1.6,6,0,8.8h0Z"/>
    </g>
    <g id="nodeblast_circle_left" class="st0">
      <path class="st1" d="M84.3,144.7c-10.2.6-18.6-7.8-18-18,.6-8.5,7.4-15.2,15.8-15.8,10.2-.6,18.6,7.8,18,18-.6,8.5-7.4,15.2-15.8,15.8Z"/>
    </g>
    <path class="st1" d="M156.7,126.7c.6-8.5,7.4-15.2,15.8-15.8,10.2-.6,18.6,7.8,18,18-.6,8.5-7.4,15.2-15.8,15.8-10.2.6-18.6-7.8-18-18Z"/>
  </g>
</svg>